<mxfile host="app.diagrams.net" agent="Mozilla/5.0 (X11; Linux x86_64; rv:128.0) Gecko/20100101 Firefox/128.0" version="28.1.1">
  <diagram name="Page-1" id="YO6fI4UiuW-zHiKsXfEC">
    <mxGraphModel dx="825" dy="959" grid="0" gridSize="10" guides="1" tooltips="1" connect="1" arrows="1" fold="1" page="1" pageScale="1" pageWidth="1000" pageHeight="400" math="0" shadow="0">
      <root>
        <mxCell id="0" />
        <mxCell id="1" parent="0" />
        <mxCell id="ppNzNEcFW-80UwDM_199-4" value="VPC" style="sketch=0;outlineConnect=0;gradientColor=none;html=1;whiteSpace=wrap;fontSize=12;fontStyle=0;shape=mxgraph.aws4.group;grIcon=mxgraph.aws4.group_vpc;strokeColor=#879196;fillColor=none;verticalAlign=top;align=left;spacingLeft=30;fontColor=#879196;dashed=0;" parent="1" vertex="1">
          <mxGeometry x="177" y="47" width="411" height="274" as="geometry" />
        </mxCell>
        <mxCell id="hcU1NdmVcPLGLA-G1CI4-4" value="eu-west-1c (public subnet)" style="sketch=0;outlineConnect=0;gradientColor=none;html=1;whiteSpace=wrap;fontSize=12;fontStyle=0;shape=mxgraph.aws4.group;grIcon=mxgraph.aws4.group_subnet;strokeColor=#879196;fillColor=none;verticalAlign=top;align=left;spacingLeft=30;fontColor=#879196;dashed=1;" vertex="1" parent="1">
          <mxGeometry x="398" y="199" width="184" height="105" as="geometry" />
        </mxCell>
        <mxCell id="ppNzNEcFW-80UwDM_199-7" value="eu-west-1b (public subnet)" style="sketch=0;outlineConnect=0;gradientColor=none;html=1;whiteSpace=wrap;fontSize=12;fontStyle=0;shape=mxgraph.aws4.group;grIcon=mxgraph.aws4.group_subnet;strokeColor=#879196;fillColor=none;verticalAlign=top;align=left;spacingLeft=30;fontColor=#879196;dashed=1;" parent="1" vertex="1">
          <mxGeometry x="398" y="79" width="184" height="105" as="geometry" />
        </mxCell>
        <mxCell id="ppNzNEcFW-80UwDM_199-5" value="eu-west-1a (public subnet)" style="sketch=0;outlineConnect=0;gradientColor=none;html=1;whiteSpace=wrap;fontSize=12;fontStyle=0;shape=mxgraph.aws4.group;grIcon=mxgraph.aws4.group_subnet;strokeColor=#879196;fillColor=none;verticalAlign=top;align=left;spacingLeft=30;fontColor=#879196;dashed=1;" parent="1" vertex="1">
          <mxGeometry x="193" y="79" width="183" height="225" as="geometry" />
        </mxCell>
        <mxCell id="aBk0e4fkvTpgOlKFJHKp-1" value="Actor" style="shape=umlActor;verticalLabelPosition=bottom;verticalAlign=top;html=1;outlineConnect=0;" parent="1" vertex="1">
          <mxGeometry x="49" y="106" width="30" height="60" as="geometry" />
        </mxCell>
        <mxCell id="aBk0e4fkvTpgOlKFJHKp-3" value="" style="endArrow=classic;html=1;rounded=0;fontSize=12;startSize=8;endSize=8;curved=1;exitX=1;exitY=0.3333333333333333;exitDx=0;exitDy=0;exitPerimeter=0;" parent="1" source="aBk0e4fkvTpgOlKFJHKp-1" target="hcU1NdmVcPLGLA-G1CI4-7" edge="1">
          <mxGeometry width="50" height="50" relative="1" as="geometry">
            <mxPoint x="109" y="126" as="sourcePoint" />
            <mxPoint x="130" y="127" as="targetPoint" />
          </mxGeometry>
        </mxCell>
        <mxCell id="aBk0e4fkvTpgOlKFJHKp-8" value="&lt;h1 style=&quot;margin-top: 0px;&quot;&gt;AWS ECS lab&lt;br&gt;&lt;/h1&gt;&lt;p&gt;1. Client connects to ALB IP address via DNS name resolution&lt;br&gt;&lt;/p&gt;&lt;p&gt;2. Frontend API containers connect to backend NLB&lt;br&gt;&lt;/p&gt;&lt;p&gt;3. Exchange happens between API and MongoDB&lt;br&gt;&lt;/p&gt;&lt;p&gt;4. Answer is returned to client&lt;br&gt;&lt;/p&gt;" style="text;html=1;whiteSpace=wrap;overflow=hidden;rounded=0;" parent="1" vertex="1">
          <mxGeometry x="615" y="79" width="341" height="180" as="geometry" />
        </mxCell>
        <mxCell id="faw6b0mYo4fymj4pTFK4-3" value="" style="endArrow=classic;html=1;rounded=0;fontSize=12;startSize=8;endSize=8;curved=1;exitX=1;exitY=0.5;exitDx=0;exitDy=0;exitPerimeter=0;startArrow=classic;startFill=1;entryX=0;entryY=0.5;entryDx=0;entryDy=0;entryPerimeter=0;" parent="1" source="faw6b0mYo4fymj4pTFK4-1" edge="1" target="ppNzNEcFW-80UwDM_199-3">
          <mxGeometry width="50" height="50" relative="1" as="geometry">
            <mxPoint x="150" y="299" as="sourcePoint" />
            <mxPoint x="236" y="126" as="targetPoint" />
          </mxGeometry>
        </mxCell>
        <mxCell id="ppNzNEcFW-80UwDM_199-3" value="EC2 instance" style="outlineConnect=0;dashed=0;verticalLabelPosition=bottom;verticalAlign=top;align=center;html=1;shape=mxgraph.aws3.ec2;fillColor=#F58534;gradientColor=none;" parent="1" vertex="1">
          <mxGeometry x="255" y="104.5" width="32.5" height="43" as="geometry" />
        </mxCell>
        <mxCell id="hcU1NdmVcPLGLA-G1CI4-1" value="ECS eu-west-1a" style="sketch=0;points=[[0,0,0],[0.25,0,0],[0.5,0,0],[0.75,0,0],[1,0,0],[0,1,0],[0.25,1,0],[0.5,1,0],[0.75,1,0],[1,1,0],[0,0.25,0],[0,0.5,0],[0,0.75,0],[1,0.25,0],[1,0.5,0],[1,0.75,0]];outlineConnect=0;fontColor=#232F3E;fillColor=#ED7100;strokeColor=#ffffff;dashed=0;verticalLabelPosition=bottom;verticalAlign=top;align=center;html=1;fontSize=12;fontStyle=0;aspect=fixed;shape=mxgraph.aws4.resourceIcon;resIcon=mxgraph.aws4.ecs;" vertex="1" parent="1">
          <mxGeometry x="271" y="189" width="49" height="49" as="geometry" />
        </mxCell>
        <mxCell id="hcU1NdmVcPLGLA-G1CI4-2" value="ECS eu-west-1b" style="sketch=0;points=[[0,0,0],[0.25,0,0],[0.5,0,0],[0.75,0,0],[1,0,0],[0,1,0],[0.25,1,0],[0.5,1,0],[0.75,1,0],[1,1,0],[0,0.25,0],[0,0.5,0],[0,0.75,0],[1,0.25,0],[1,0.5,0],[1,0.75,0]];outlineConnect=0;fontColor=#232F3E;fillColor=#ED7100;strokeColor=#ffffff;dashed=0;verticalLabelPosition=bottom;verticalAlign=top;align=center;html=1;fontSize=12;fontStyle=0;aspect=fixed;shape=mxgraph.aws4.resourceIcon;resIcon=mxgraph.aws4.ecs;" vertex="1" parent="1">
          <mxGeometry x="469" y="111.5" width="49" height="49" as="geometry" />
        </mxCell>
        <mxCell id="hcU1NdmVcPLGLA-G1CI4-5" value="ECS eu-west-1c" style="sketch=0;points=[[0,0,0],[0.25,0,0],[0.5,0,0],[0.75,0,0],[1,0,0],[0,1,0],[0.25,1,0],[0.5,1,0],[0.75,1,0],[1,1,0],[0,0.25,0],[0,0.5,0],[0,0.75,0],[1,0.25,0],[1,0.5,0],[1,0.75,0]];outlineConnect=0;fontColor=#232F3E;fillColor=#ED7100;strokeColor=#ffffff;dashed=0;verticalLabelPosition=bottom;verticalAlign=top;align=center;html=1;fontSize=12;fontStyle=0;aspect=fixed;shape=mxgraph.aws4.resourceIcon;resIcon=mxgraph.aws4.ecs;" vertex="1" parent="1">
          <mxGeometry x="469" y="234" width="49" height="49" as="geometry" />
        </mxCell>
        <mxCell id="hcU1NdmVcPLGLA-G1CI4-6" value="backend NLB" style="sketch=0;outlineConnect=0;fontColor=#232F3E;gradientColor=none;fillColor=#8C4FFF;strokeColor=none;dashed=0;verticalLabelPosition=bottom;verticalAlign=top;align=center;html=1;fontSize=12;fontStyle=0;aspect=fixed;pointerEvents=1;shape=mxgraph.aws4.network_load_balancer;" vertex="1" parent="1">
          <mxGeometry x="365" y="226" width="44" height="44" as="geometry" />
        </mxCell>
        <mxCell id="hcU1NdmVcPLGLA-G1CI4-8" value="" style="endArrow=classic;html=1;rounded=0;fontSize=12;startSize=8;endSize=8;curved=0;exitX=1;exitY=0.5;exitDx=0;exitDy=0;exitPerimeter=0;" edge="1" parent="1" source="hcU1NdmVcPLGLA-G1CI4-1" target="hcU1NdmVcPLGLA-G1CI4-6">
          <mxGeometry width="50" height="50" relative="1" as="geometry">
            <mxPoint x="307" y="412" as="sourcePoint" />
            <mxPoint x="357" y="362" as="targetPoint" />
            <Array as="points">
              <mxPoint x="351" y="214" />
            </Array>
          </mxGeometry>
        </mxCell>
        <mxCell id="hcU1NdmVcPLGLA-G1CI4-9" value="" style="endArrow=classic;html=1;rounded=0;fontSize=12;startSize=8;endSize=8;curved=0;exitX=0;exitY=0.5;exitDx=0;exitDy=0;exitPerimeter=0;entryX=0.909;entryY=0.477;entryDx=0;entryDy=0;entryPerimeter=0;" edge="1" parent="1" source="hcU1NdmVcPLGLA-G1CI4-5" target="hcU1NdmVcPLGLA-G1CI4-6">
          <mxGeometry width="50" height="50" relative="1" as="geometry">
            <mxPoint x="444" y="352" as="sourcePoint" />
            <mxPoint x="474" y="433" as="targetPoint" />
            <Array as="points">
              <mxPoint x="451" y="247" />
            </Array>
          </mxGeometry>
        </mxCell>
        <mxCell id="hcU1NdmVcPLGLA-G1CI4-10" value="" style="endArrow=classic;html=1;rounded=0;fontSize=12;startSize=8;endSize=8;curved=0;exitX=0;exitY=0.5;exitDx=0;exitDy=0;exitPerimeter=0;" edge="1" parent="1" source="hcU1NdmVcPLGLA-G1CI4-2" target="hcU1NdmVcPLGLA-G1CI4-6">
          <mxGeometry width="50" height="50" relative="1" as="geometry">
            <mxPoint x="347" y="389" as="sourcePoint" />
            <mxPoint x="397" y="339" as="targetPoint" />
            <Array as="points">
              <mxPoint x="387" y="136" />
            </Array>
          </mxGeometry>
        </mxCell>
        <mxCell id="hcU1NdmVcPLGLA-G1CI4-11" value="" style="endArrow=classic;html=1;rounded=0;fontSize=12;startSize=8;endSize=8;curved=0;exitX=0;exitY=0.5;exitDx=0;exitDy=0;exitPerimeter=0;" edge="1" parent="1" source="hcU1NdmVcPLGLA-G1CI4-2" target="hcU1NdmVcPLGLA-G1CI4-7">
          <mxGeometry width="50" height="50" relative="1" as="geometry">
            <mxPoint x="286" y="454" as="sourcePoint" />
            <mxPoint x="336" y="404" as="targetPoint" />
            <Array as="points">
              <mxPoint x="368" y="136" />
              <mxPoint x="368" y="179" />
              <mxPoint x="227" y="179" />
            </Array>
          </mxGeometry>
        </mxCell>
        <mxCell id="hcU1NdmVcPLGLA-G1CI4-13" value="" style="endArrow=classic;html=1;rounded=0;fontSize=12;startSize=8;endSize=8;curved=1;exitX=0;exitY=0.5;exitDx=0;exitDy=0;exitPerimeter=0;" edge="1" parent="1" source="hcU1NdmVcPLGLA-G1CI4-1" target="hcU1NdmVcPLGLA-G1CI4-7">
          <mxGeometry width="50" height="50" relative="1" as="geometry">
            <mxPoint x="254" y="480" as="sourcePoint" />
            <mxPoint x="304" y="430" as="targetPoint" />
          </mxGeometry>
        </mxCell>
        <mxCell id="hcU1NdmVcPLGLA-G1CI4-14" value="" style="endArrow=classic;html=1;rounded=0;fontSize=12;startSize=8;endSize=8;curved=0;exitX=0.5;exitY=1;exitDx=0;exitDy=0;exitPerimeter=0;" edge="1" parent="1" source="hcU1NdmVcPLGLA-G1CI4-5" target="hcU1NdmVcPLGLA-G1CI4-7">
          <mxGeometry width="50" height="50" relative="1" as="geometry">
            <mxPoint x="372" y="392" as="sourcePoint" />
            <mxPoint x="422" y="342" as="targetPoint" />
            <Array as="points">
              <mxPoint x="494" y="317" />
              <mxPoint x="185" y="315" />
            </Array>
          </mxGeometry>
        </mxCell>
        <mxCell id="hcU1NdmVcPLGLA-G1CI4-15" value="ECR" style="outlineConnect=0;dashed=0;verticalLabelPosition=bottom;verticalAlign=top;align=center;html=1;shape=mxgraph.aws3.ecr;fillColor=#F58534;gradientColor=none;" vertex="1" parent="1">
          <mxGeometry x="323" y="106" width="40" height="38" as="geometry" />
        </mxCell>
        <mxCell id="hcU1NdmVcPLGLA-G1CI4-17" value="" style="endArrow=classic;html=1;rounded=0;fontSize=12;startSize=8;endSize=8;curved=1;exitX=1;exitY=0.5;exitDx=0;exitDy=0;exitPerimeter=0;entryX=0;entryY=0.5;entryDx=0;entryDy=0;entryPerimeter=0;" edge="1" parent="1" source="ppNzNEcFW-80UwDM_199-3" target="hcU1NdmVcPLGLA-G1CI4-15">
          <mxGeometry width="50" height="50" relative="1" as="geometry">
            <mxPoint x="301" y="11" as="sourcePoint" />
            <mxPoint x="351" y="-39" as="targetPoint" />
          </mxGeometry>
        </mxCell>
        <mxCell id="faw6b0mYo4fymj4pTFK4-1" value="IGW" style="outlineConnect=0;dashed=0;verticalLabelPosition=bottom;verticalAlign=top;align=center;html=1;shape=mxgraph.aws3.internet_gateway;fillColor=#F58534;gradientColor=none;" parent="1" vertex="1">
          <mxGeometry x="160" y="104.5" width="44" height="42" as="geometry" />
        </mxCell>
        <mxCell id="hcU1NdmVcPLGLA-G1CI4-7" value="frontend ALB" style="sketch=0;outlineConnect=0;fontColor=#232F3E;gradientColor=none;fillColor=#8C4FFF;strokeColor=none;dashed=0;verticalLabelPosition=bottom;verticalAlign=top;align=center;html=1;fontSize=12;fontStyle=0;aspect=fixed;pointerEvents=1;shape=mxgraph.aws4.application_load_balancer;" vertex="1" parent="1">
          <mxGeometry x="162" y="175" width="45" height="45" as="geometry" />
        </mxCell>
      </root>
    </mxGraphModel>
  </diagram>
</mxfile>
